<?xml version="1.0" encoding="UTF-8" standalone="no"?><!DOCTYPE svg PUBLIC "-//W3C//DTD SVG 1.1//EN" "http://www.w3.org/Graphics/SVG/1.1/DTD/svg11.dtd"><svg width="100%" height="100%" viewBox="0 0 631 426" version="1.1" xmlns="http://www.w3.org/2000/svg" xmlns:xlink="http://www.w3.org/1999/xlink" xml:space="preserve" xmlns:serif="http://www.serif.com/" style="fill-rule:evenodd;clip-rule:evenodd;stroke-linejoin:round;stroke-miterlimit:2;"><g><g><path d="M580.61,402.18c0.91,-8.95 1.38,-18.04 1.38,-27.24c0,-146.468 -118.73,-265.206 -265.21,-265.206c-146.466,0 -265.205,118.738 -265.205,265.206c0,9.2 0.471,18.29 1.385,27.24l527.65,0Z" style="fill:#f5f8fc;fill-rule:nonzero;"/><path d="M597.63,400.37l-561.686,0c-0.747,0 -1.353,0.6 -1.353,1.35c0,0.75 0.606,1.35 1.353,1.35l561.686,0c0.74,0 1.35,-0.6 1.35,-1.35c0,-0.75 -0.61,-1.35 -1.35,-1.35Z" style="fill:#bcb7db;fill-rule:nonzero;"/><path d="M456.66,214.842c0.62,-3.237 -2.87,-4.545 -7.47,-4.388c-4.6,0.188 -10.33,1.676 -14.65,4.466c3.52,-4.39 6.85,-8.932 9.96,-13.629c3.01,2.962 8.66,3.821 13.77,2.681c5.08,-1.093 9.59,-4.351 9.85,-8.082c0.22,-3.608 -3.49,-4.194 -8.03,-3.224c-4.62,0.917 -10.11,3.167 -14.12,6.373c1.57,-2.496 3.13,-5.005 4.52,-7.614c4.38,-2.36 8.58,-8.342 10.1,-14.518c2.19,-9.811 -3.42,-18.926 -8.28,-2.194c-1.54,4.944 -3.3,11.282 -3.04,16.183c-1.36,2.539 -2.88,4.994 -4.41,7.433c1.28,-4.984 0.12,-10.713 -2.07,-14.466c-2.26,-3.781 -5.35,-5.699 -7.47,-4.377c-2.33,1.422 -1.95,5.564 -0.37,10.109c1.61,4.494 4.54,9.311 8.45,10.966c-3.09,4.659 -6.4,9.173 -9.89,13.536c1.77,-4.821 1.4,-10.654 -0.2,-14.799c-1.57,-4.15 -4.21,-6.657 -6.74,-5.436c-2.62,1.306 -3,5.698 -1.94,10.473c1.01,4.712 3.5,9.82 7.21,11.845c-3.54,4.33 -7.23,8.544 -11.07,12.613c4.4,-9.462 0.26,-23.038 -5.08,-20.857c-2.78,1.12 -3.6,5.519 -2.96,10.389c0.61,4.804 2.66,10.085 6.2,12.403c-3.86,4.05 -7.89,7.935 -12.02,11.713c5.12,-9.086 2.09,-22.962 -3.41,-21.204c-2.89,0.897 -4.02,5.248 -3.79,10.119c0.26,4.867 1.85,10.245 5.21,12.856c-4.16,3.749 -8.53,7.243 -12.95,10.661c5.94,-8.583 3.92,-22.685 -1.65,-21.368c-2.95,0.606 -4.37,4.848 -4.55,9.671c-0.11,4.885 0.95,10.328 4.04,13.264c-4.47,3.358 -9.2,6.338 -14,9.194c6.98,-7.804 6.11,-22.03 0.56,-21.286c-2.94,0.238 -4.65,4.235 -5.32,8.938c-0.59,4.784 -0.24,10.284 2.42,13.62c-4.87,2.706 -9.98,5.008 -15.27,6.698c4.16,-2.997 6.58,-8.308 7.08,-12.63c0.53,-4.305 -0.72,-7.783 -3.32,-7.979c-1.38,-0.152 -2.56,0.685 -3.56,2.101c-0.98,1.313 -1.81,3.298 -2.46,5.561c-1.21,4.281 -2.07,9.967 -0.26,13.746c-7.01,1.96 -14.59,2.531 -21.46,0.217c-0.44,-0.129 -0.9,0.042 -1.03,0.382c-0.14,0.339 0.13,0.728 0.6,0.867c7.23,2.438 15.08,1.807 22.24,-0.19c0.3,4.259 4,8.496 9.12,10.775c2.45,1.065 5.12,1.626 7.54,1.587c2.35,-0.095 4.36,-0.827 5.59,-2.202c2.26,-2.673 -0.24,-5.373 -4.47,-7.431c-4.24,-2.027 -10.04,-3.439 -15.2,-3.545c5.39,-1.724 10.57,-4.06 15.5,-6.796c1.23,4.016 5.93,7.473 10.97,8.746c5.08,1.373 10.38,0.626 12.23,-2.355c3.24,-5.744 -10.9,-9.613 -20.84,-7.677c4.84,-2.884 9.62,-5.893 14.12,-9.272c1.77,3.812 6.85,6.617 11.92,7.351c5.11,0.819 10.19,-0.371 11.65,-3.481c2.61,-5.918 -11.77,-8.631 -21.39,-5.451c4.45,-3.441 8.85,-6.956 13.03,-10.725c2.14,3.635 7.4,5.917 12.51,6.256c5.11,0.375 10.07,-1.163 11.22,-4.389c2.12,-6.046 -12.43,-7.708 -21.73,-3.651c4.15,-3.798 8.2,-7.703 12.09,-11.775c2.44,3.462 7.82,5.28 12.97,5.256c5.09,-0.053 9.94,-1.944 10.83,-5.275c1.64,-6.211 -13.01,-6.686 -21.95,-1.927c3.86,-4.09 7.56,-8.326 11.12,-12.682c2.72,3.259 8.21,4.625 13.37,4.162c5.09,-0.498 9.8,-2.871 10.43,-6.336Z" style="fill:#efa852;fill-rule:nonzero;"/><path d="M387.77,119.16l-141.97,0c-8.3,0 -15.03,6.727 -15.03,15.027l0,251.153c0,8.3 6.73,15.03 15.03,15.03l141.97,0c8.3,0 15.03,-6.73 15.03,-15.03l0,-251.153c0,-8.3 -6.73,-15.027 -15.03,-15.027Z" style="fill:#bcb7db;fill-rule:nonzero;"/><path d="M388.56,127.335l-143.55,0c-5.79,0 -10.49,4.701 -10.49,10.499l0,232.376c0,5.8 4.7,10.5 10.49,10.5l143.55,0c5.8,0 10.5,-4.7 10.5,-10.5l0,-232.376c0,-5.798 -4.7,-10.499 -10.5,-10.499Z" style="fill:#286078;fill-rule:nonzero;"/><path d="M267.02,271.511l-4.4,0l0,-1.102l4.4,0l0,1.102Zm8.82,0l-4.41,0l0,-1.102l4.41,0l0,1.102Zm8.82,0l-4.41,0l0,-1.102l4.41,0l0,1.102Zm8.82,0l-4.41,0l0,-1.102l4.41,0l0,1.102Zm8.82,0l-4.41,0l0,-1.102l4.41,0l0,1.102Zm8.82,0l-4.41,0l0,-1.102l4.41,0l0,1.102Zm8.82,0l-4.41,0l0,-1.102l4.41,0l0,1.102Zm8.81,0l-4.4,0l0,-1.102l4.4,0l0,1.102Zm8.82,0l-4.41,0l0,-1.102l4.41,0l0,1.102Zm8.82,0l-4.41,0l0,-1.102l4.41,0l0,1.102Zm8.82,0l-4.41,0l0,-1.102l4.41,0l0,1.102Zm8.82,0l-4.41,0l0,-1.102l4.41,0l0,1.102Zm8.82,0l-4.41,0l0,-1.102l4.41,0l0,1.102Zm-118.33,1.658l-0.67,-0.879c1.25,-0.947 2.73,-1.567 4.28,-1.787l0.16,1.094c-1.37,0.194 -2.68,0.736 -3.77,1.572Zm126.22,0.439c-1.03,-0.926 -2.28,-1.58 -3.62,-1.886l0.24,-1.077c1.53,0.349 2.95,1.094 4.12,2.145l-0.74,0.818Zm3.81,7.578l-1.1,0l0,-1.489c0,-0.918 -0.15,-1.822 -0.45,-2.687l1.04,-0.362c0.34,0.986 0.51,2.011 0.51,3.049l0,1.489Zm-133.29,2.915l-1.1,0l0,-4.409c0,-1.317 0.27,-2.592 0.8,-3.785l1.01,0.448c-0.47,1.055 -0.71,2.175 -0.71,3.337l0,4.409Zm133.29,5.904l-1.1,0l0,-4.409l1.1,0l0,4.409Zm-133.29,2.915l-1.1,0l0,-4.409l1.1,0l0,4.409Zm133.29,5.903l-1.1,0l0,-4.409l1.1,0l0,4.409Zm-133.29,2.916l-1.1,0l0,-4.41l1.1,0l0,4.41Zm133.29,5.903l-1.1,0l0,-4.409l1.1,0l0,4.409Zm-133.29,2.915l-1.1,0l0,-4.409l1.1,0l0,4.409Zm133.29,5.904l-1.1,0l0,-4.41l1.1,0l0,4.41Zm-133.29,2.915l-1.1,0l0,-4.41l1.1,0l0,4.41Zm133.29,5.904l-1.1,0l0,-4.41l1.1,0l0,4.41Zm-133.29,2.91l-1.1,0l0,-4.41l1.1,0l0,4.41Zm133.29,5.91l-1.1,0l0,-4.41l1.1,0l0,4.41Zm-133.29,2.91l-1.1,0l0,-4.41l1.1,0l0,4.41Zm133.29,5.91l-1.1,0l0,-4.41l1.1,0l0,4.41Zm-133.29,2.91l-1.1,0l0,-4.41l1.1,0l0,4.41Zm133.09,6l-1.08,-0.23c0.12,-0.55 0.18,-1.12 0.18,-1.7l0,-2.57l1.1,0l0,2.57c0,0.65 -0.07,1.31 -0.2,1.93Zm-132.85,2.87c-0.81,-1.34 -1.27,-2.87 -1.33,-4.44l1.1,-0.04c0.05,1.38 0.45,2.73 1.17,3.91l-0.94,0.57Zm126.96,3.92l-0.37,-1.04c1.29,-0.47 2.45,-1.28 3.36,-2.32l0.83,0.72c-1.03,1.19 -2.35,2.1 -3.82,2.64Zm-110.35,0.56l-4.41,0l0,-1.1l4.41,0l0,1.1Zm8.81,0l-4.41,0l0,-1.1l4.41,0l0,1.1Zm8.82,0l-4.41,0l0,-1.1l4.41,0l0,1.1Zm8.82,0l-4.41,0l0,-1.1l4.41,0l0,1.1Zm8.82,0l-4.41,0l0,-1.1l4.41,0l0,1.1Zm8.82,0l-4.41,0l0,-1.1l4.41,0l0,1.1Zm8.82,0l-4.41,0l0,-1.1l4.41,0l0,1.1Zm8.82,0l-4.41,0l0,-1.1l4.41,0l0,1.1Zm8.81,0l-4.41,0l0,-1.1l4.41,0l0,1.1Zm8.82,0l-4.41,0l0,-1.1l4.41,0l0,1.1Zm8.82,0l-4.41,0l0,-1.1l4.41,0l0,1.1Zm8.82,0l-4.41,0l0,-1.1l4.41,0l0,1.1Zm8.82,0l-4.41,0l0,-1.1l4.41,0l0,1.1Zm-114.66,0.01c-1.57,-0.04 -3.12,-0.47 -4.46,-1.24l0.55,-0.96c1.19,0.69 2.55,1.07 3.94,1.1l-0.03,1.1Z" style="fill:#fff;fill-rule:nonzero;"/><path d="M152.689,107.341l54.521,-15.298l-52.083,28.875l-2.438,-13.577Z" style="fill:#d0d4eb;fill-rule:nonzero;"/><path d="M155.127,120.918l52.083,-28.875l-36.155,45.8l-15.928,-16.925Z" style="fill:#a5a3d1;fill-rule:nonzero;"/><path d="M157.243,127.871l49.967,-35.828l-43.591,48.683l-6.376,-12.855Z" style="fill:#d0d4eb;fill-rule:nonzero;"/><path d="M149.46,127.155l-1.279,-1.8c1.21,-0.861 2.442,-1.697 3.693,-2.502l1.192,1.852c-1.221,0.787 -2.422,1.606 -3.606,2.45Zm-6.84,5.391l-1.447,-1.662c1.126,-0.982 2.274,-1.93 3.441,-2.847l1.365,1.731c-1.141,0.9 -2.259,1.822 -3.359,2.778Zm-6.321,5.993l-1.589,-1.524c1.029,-1.072 2.084,-2.123 3.161,-3.147l1.52,1.601c-1.055,0.999 -2.085,2.024 -3.092,3.07Zm-5.735,6.567l-1.727,-1.369c0.928,-1.167 1.882,-2.313 2.863,-3.432l1.658,1.455c-0.956,1.094 -1.888,2.205 -2.794,3.346Zm-5.114,7.062l-1.843,-1.215c0.818,-1.244 1.662,-2.467 2.532,-3.673l1.787,1.292c-0.852,1.18 -1.675,2.377 -2.476,3.596Zm-4.428,7.501l-1.947,-1.034c0.696,-1.313 1.421,-2.613 2.177,-3.892l1.899,1.119c-0.739,1.253 -1.447,2.519 -2.129,3.807Zm-3.344,7.841l-2.14,-0.534c0.338,-1.357 0.857,-2.812 1.546,-4.336l2.006,0.913c-0.633,1.395 -1.106,2.73 -1.412,3.957Zm6.334,1.322l-0.771,-2.067c0.267,-0.099 0.536,-0.194 0.81,-0.284c1.3,-0.422 2.598,-0.642 3.862,-0.655l0.026,2.205c-1.029,0.013 -2.136,0.198 -3.201,0.547c-0.242,0.077 -0.485,0.163 -0.726,0.254Zm9.699,2.867c-0.327,-1.123 -1.102,-2.153 -2.073,-2.751l1.126,-1.895c1.475,0.905 2.581,2.369 3.066,4.031l-2.119,0.615Zm-16.722,4.651c-1.077,-1.266 -1.714,-2.825 -1.89,-4.629l1.154,-0.112c0.893,-0.982 1.853,-1.856 2.865,-2.596l1.305,1.774c-0.963,0.71 -1.875,1.55 -2.721,2.51c0.23,0.598 0.551,1.137 0.966,1.623l-1.679,1.43Zm13.542,2.415l-0.56,-2.135c1.508,-0.396 2.554,-0.973 3.197,-1.766l1.71,1.395c-0.95,1.163 -2.37,1.985 -4.347,2.506Zm-5.477,0.689c-1.417,-0.004 -2.704,-0.168 -3.828,-0.486l0.598,-2.119c1.131,0.319 2.507,0.465 4.022,0.379l0.099,2.205c-0.297,0.013 -0.594,0.021 -0.891,0.021Zm-11.854,1.464l-2.05,-0.809c0.581,-1.468 1.24,-2.855 1.959,-4.117l1.916,1.094c-0.667,1.171 -1.283,2.459 -1.825,3.832Zm-2.293,8.281l-2.17,-0.388c0.264,-1.507 0.596,-2.988 0.983,-4.405l2.128,0.586c-0.371,1.348 -0.687,2.764 -0.941,4.207Zm-0.928,8.629l-2.2,-0.121c0.079,-1.485 0.198,-2.967 0.353,-4.452l2.192,0.232c-0.151,1.443 -0.265,2.89 -0.345,4.341Zm-2.254,8.801c-0.056,-1.317 -0.084,-2.626 -0.084,-3.94l0,-0.516l2.204,0l0,0.516c0,1.279 0.028,2.562 0.084,3.845l-2.204,0.095Zm0.811,8.888c-0.206,-1.482 -0.376,-2.959 -0.512,-4.44l2.196,-0.198c0.131,1.447 0.297,2.889 0.5,4.328l-2.184,0.31Zm1.658,8.762c-0.346,-1.447 -0.659,-2.902 -0.934,-4.362l2.166,-0.413c0.271,1.425 0.575,2.846 0.913,4.258l-2.145,0.517Zm2.5,8.569c-0.487,-1.408 -0.937,-2.825 -1.354,-4.254l2.118,-0.62c0.405,1.395 0.846,2.777 1.32,4.151l-2.084,0.723Zm3.315,8.285c-0.622,-1.357 -1.207,-2.726 -1.761,-4.108l2.045,-0.818c0.541,1.347 1.114,2.682 1.719,4.004l-2.003,0.922Z" style="fill:#d0d4eb;fill-rule:nonzero;"/><path d="M133.045,270.502c-3.351,-3.837 -14.043,4.769 -15.05,14.048l-1.676,-7.171l-1.285,-7.25c4.26,-0.003 8.856,-2.876 12.251,-6.028c3.411,-3.184 5.334,-6.635 3.682,-8.756c-1.454,-2.009 -5.043,-1.25 -8.567,1.237c-3.393,2.461 -6.72,6.751 -7.77,11.238c-0.363,-2.544 -0.606,-5.104 -0.915,-7.655c1.056,-1.952 1.806,-4.389 2.31,-6.949c0.498,-2.558 0.48,-5.228 0.428,-7.681c-0.118,-4.888 -1.564,-8.968 -4.174,-9.103c-2.623,-0.138 -4.168,4.054 -4.393,9.276c0.016,5.199 1.334,11.337 4.525,14.698c0.308,2.536 0.549,5.081 0.911,7.61c-2.168,-4.002 -6.304,-7.641 -10.257,-9.774c-3.819,-2.129 -7.444,-2.659 -8.651,0.116c-1.163,2.921 1.675,6.858 5.732,9.465c4.082,2.635 9.634,3.881 13.583,2.518l1.295,7.306l1.687,7.224c-5.248,-7.332 -17.905,-13.358 -19.738,-7.729c-0.998,3.045 2.241,6.643 6.606,8.813c4.35,2.206 9.815,2.964 13.673,1.213c1.406,4.741 2.657,9.532 4.381,14.169c-3.015,-3.486 -7.691,-6.282 -11.895,-7.626c-4.21,-1.324 -7.902,-1.113 -8.474,1.787c-0.583,3.06 2.732,6.404 7.363,8.114c4.567,1.768 10.097,2.033 13.779,-0.046c1.657,4.655 3.516,9.244 5.505,13.765c-6.335,-6.396 -20.071,-9.817 -20.784,-4.053c-0.311,3.068 3.366,6.031 7.991,7.4c4.714,1.352 10.27,1.163 13.767,-1.199c1.962,4.541 4.283,8.901 6.498,13.321c-3.361,-3.06 -8.57,-4.98 -12.922,-5.6c-4.316,-0.62 -7.899,0.21 -8.051,3.16c-0.164,3.11 3.832,5.66 8.513,6.69c4.684,1.05 10.314,0.4 13.603,-2.19c2.342,4.36 4.825,8.63 7.419,12.83c-7.224,-5.46 -21.123,-6.77 -21.071,-0.99c0.029,3.11 4.12,5.38 8.901,6.05c4.772,0.7 10.237,-0.23 13.395,-3.05c2.685,4.15 5.334,8.32 8.195,12.35c-7.547,-5.05 -21.468,-5.45 -21.075,0.28c0.512,6.27 16.524,7.71 22.416,1.65c3.757,5.32 7.673,10.52 11.687,15.65c0.254,0.32 0.692,0.41 0.978,0.18c0.287,-0.23 0.314,-0.68 0.061,-1c-4.002,-5.11 -7.903,-10.29 -11.646,-15.59c7.522,-3.8 12.163,-18.38 7.344,-20.74c-4.693,-2.39 -11.004,9.85 -8.68,18.81c-2.849,-4.01 -5.486,-8.16 -8.159,-12.29c3.882,-1.62 7.132,-6.14 8.915,-10.44c1.751,-4.31 2.009,-8.42 -0.336,-9.79c-4.512,-2.65 -11.604,9.13 -9.799,18.23c-2.581,-4.19 -5.052,-8.44 -7.382,-12.77c4.019,-1.39 7.422,-5.64 9.536,-9.82c2.098,-4.195 2.597,-8.216 0.348,-9.72c-2.13,-1.421 -5.181,0.584 -7.586,4.179c-2.377,3.57 -3.923,8.721 -3.436,13.311c-2.202,-4.39 -4.512,-8.73 -6.461,-13.247c4.072,-1.095 7.887,-5.122 10.192,-9.077c2.38,-4.007 3.343,-7.976 1.13,-9.605c-4.111,-3.195 -12.776,7.23 -12.291,16.547c-1.977,-4.495 -3.825,-9.055 -5.47,-13.679c4.138,-0.766 8.287,-4.482 10.946,-8.219c2.572,-3.751 3.995,-7.611 1.954,-9.404c-1.909,-1.7 -5.24,-0.252 -8.158,2.867c-2.933,3.106 -5.453,7.981 -5.51,12.539c-1.714,-4.606 -2.955,-9.363 -4.352,-14.07c4.182,-0.398 8.664,-3.737 11.698,-7.209c3.006,-3.499 4.539,-7.145 2.816,-9.121Z" style="fill:#efa852;fill-rule:nonzero;"/><path d="M582.52,266.567c-1.59,-6.318 -14.61,0.642 -20.18,9.045c1.44,-5.439 2.64,-10.943 3.57,-16.496c3.96,1.484 9.47,-0.021 13.67,-3.137c4.21,-3.061 7,-7.866 5.73,-11.384c-1.27,-3.385 -4.89,-2.416 -8.65,0.313c-3.85,2.711 -7.95,6.995 -10.32,11.553c0.42,-2.918 0.83,-5.845 1.04,-8.792c12.21,-15.76 -8.68,-42.28 -5.12,-16.011c0.6,5.144 1.57,11.648 3.79,16.022c-0.21,2.871 -0.6,5.733 -1.01,8.585c-0.85,-5.077 -4.24,-9.84 -7.76,-12.385c-3.6,-2.535 -7.21,-3.034 -8.61,-0.967c-1.54,2.243 0.48,5.877 3.77,9.388c3.29,3.455 7.93,6.669 12.17,6.596c-0.93,5.508 -2.12,10.977 -3.55,16.384c-0.33,-5.126 -3.04,-10.309 -6.19,-13.446c-3.11,-3.155 -6.55,-4.373 -8.36,-2.234c-1.86,2.255 -0.43,6.426 2.48,10.361c2.83,3.897 7.18,7.555 11.39,7.899c-1.48,5.394 -3.14,10.741 -4.99,16.018c0.18,-10.434 -9.12,-21.158 -13.11,-17.001c-2.09,2.151 -1.05,6.507 1.51,10.697c2.5,4.145 6.52,8.136 10.7,8.819c-1.88,5.268 -3.99,10.454 -6.23,15.58c0.99,-10.38 -7.41,-21.831 -11.73,-17.991c-2.27,1.99 -1.54,6.427 0.65,10.785c2.22,4.34 5.85,8.611 9.98,9.636c-2.28,5.112 -4.86,10.076 -7.51,14.996c1.94,-10.253 -5.63,-22.321 -10.18,-18.86c-2.45,1.751 -2.03,6.205 -0.23,10.686c1.88,4.514 5.05,9.054 9.07,10.484c-2.72,4.88 -5.84,9.53 -9.06,14.08c3.21,-9.96 -3.36,-22.61 -8.13,-19.68c-2.59,1.41 -2.53,5.76 -1.23,10.33c1.4,4.61 3.95,9.5 7.74,11.46c-3.36,4.46 -7.09,8.63 -11.24,12.32c2.58,-4.42 2.64,-10.26 1.35,-14.41c-1.27,-4.15 -3.83,-6.82 -6.28,-5.95c-1.32,0.43 -2.06,1.67 -2.4,3.37c-0.36,1.6 -0.32,3.75 0.01,6.08c0.64,4.4 2.15,9.95 5.34,12.67c-5.61,4.64 -12.3,8.23 -19.52,8.91c-0.45,0.06 -0.8,0.4 -0.79,0.77c0.02,0.36 0.42,0.61 0.9,0.55c7.61,-0.72 14.52,-4.48 20.25,-9.21c2,3.77 7.11,6.14 12.71,6.15c2.67,-0.02 5.34,-0.59 7.54,-1.61c2.1,-1.04 3.65,-2.53 4.21,-4.29c0.98,-3.36 -2.4,-4.81 -7.11,-4.97c-4.69,-0.13 -10.56,0.93 -15.33,2.93c4.23,-3.77 8.01,-8 11.41,-12.5c2.75,3.17 8.46,4.42 13.58,3.54c5.2,-0.81 9.74,-3.64 10.22,-7.12c0.63,-6.56 -13.87,-4.36 -22.16,1.44c3.25,-4.6 6.4,-9.28 9.14,-14.2c3.17,2.76 8.94,3.27 13.87,1.88c5.01,-1.32 9.17,-4.47 9.24,-7.91c-0.02,-6.464 -14.26,-3.11 -21.76,3.7c2.67,-4.95 5.26,-9.948 7.55,-15.088c3.44,2.453 9.17,2.404 13.98,0.639c4.82,-1.732 8.73,-5.149 8.47,-8.564c-0.51,-6.386 -14.49,-1.999 -21.34,5.48c2.25,-5.155 4.37,-10.367 6.26,-15.663c3.64,2.172 9.29,1.651 14,-0.463c4.63,-2.113 8.29,-5.81 7.76,-9.216c-1.03,-6.341 -14.61,-0.83 -20.85,7.149c1.86,-5.305 3.53,-10.679 5.02,-16.104c3.8,1.875 9.38,0.894 13.9,-1.622c4.45,-2.518 7.8,-6.6 6.96,-10.021Z" style="fill:#efa852;fill-rule:nonzero;"/><path d="M212.86,371.28c-0.12,0 -0.23,-0.03 -0.34,-0.1l-22.99,-15.13c-0.28,-0.18 -0.36,-0.56 -0.18,-0.85c0.19,-0.28 0.57,-0.36 0.85,-0.17l23,15.12c0.28,0.19 0.359,0.57 0.18,0.85c-0.12,0.18 -0.321,0.28 -0.52,0.28Z" style="fill:#304a9f;fill-rule:nonzero;"/><path d="M189.87,371.28c-0.2,0 -0.4,-0.1 -0.52,-0.28c-0.18,-0.28 -0.1,-0.66 0.18,-0.85l22.99,-15.12c0.289,-0.19 0.67,-0.11 0.86,0.17c0.179,0.29 0.1,0.67 -0.18,0.85l-23,15.13c-0.1,0.07 -0.22,0.1 -0.33,0.1Z" style="fill:#586bb2;fill-rule:nonzero;"/><path d="M212.86,356.16c-0.12,0 -0.23,-0.03 -0.34,-0.1l-22.99,-15.13c-0.28,-0.19 -0.36,-0.57 -0.18,-0.85c0.19,-0.29 0.57,-0.37 0.85,-0.18l23,15.13c0.28,0.19 0.359,0.57 0.18,0.85c-0.12,0.18 -0.321,0.28 -0.52,0.28Z" style="fill:#304a9f;fill-rule:nonzero;"/><path d="M189.87,356.16c-0.2,0 -0.4,-0.1 -0.52,-0.28c-0.18,-0.28 -0.1,-0.66 0.18,-0.85l22.99,-15.13c0.289,-0.19 0.67,-0.11 0.86,0.18c0.179,0.28 0.1,0.66 -0.18,0.85l-23,15.13c-0.1,0.07 -0.22,0.1 -0.33,0.1Z" style="fill:#586bb2;fill-rule:nonzero;"/><path d="M212.86,341.03c-0.12,0 -0.23,-0.03 -0.34,-0.1l-22.99,-15.12c-0.28,-0.19 -0.36,-0.57 -0.18,-0.86c0.19,-0.28 0.57,-0.36 0.85,-0.17l23,15.12c0.28,0.19 0.359,0.57 0.18,0.86c-0.12,0.18 -0.321,0.27 -0.52,0.27Z" style="fill:#304a9f;fill-rule:nonzero;"/><path d="M189.87,341.03c-0.2,0 -0.4,-0.09 -0.52,-0.27c-0.18,-0.29 -0.1,-0.67 0.18,-0.86l22.99,-15.12c0.289,-0.19 0.67,-0.11 0.86,0.17c0.179,0.29 0.1,0.67 -0.18,0.86l-23,15.12c-0.1,0.07 -0.22,0.1 -0.33,0.1Z" style="fill:#586bb2;fill-rule:nonzero;"/><path d="M212.86,325.91c-0.12,0 -0.23,-0.03 -0.34,-0.1l-22.99,-15.129c-0.28,-0.188 -0.36,-0.569 -0.18,-0.852c0.19,-0.284 0.57,-0.364 0.85,-0.176l23,15.127c0.28,0.19 0.359,0.57 0.18,0.85c-0.12,0.18 -0.321,0.28 -0.52,0.28Z" style="fill:#304a9f;fill-rule:nonzero;"/><path d="M189.87,325.91c-0.2,0 -0.4,-0.1 -0.52,-0.28c-0.18,-0.28 -0.1,-0.66 0.18,-0.85l22.99,-15.127c0.289,-0.188 0.67,-0.108 0.86,0.176c0.179,0.283 0.1,0.664 -0.18,0.852l-23,15.129c-0.1,0.07 -0.22,0.1 -0.33,0.1Z" style="fill:#586bb2;fill-rule:nonzero;"/><path d="M212.86,310.784c-0.12,0 -0.23,-0.032 -0.34,-0.101l-22.99,-15.127c-0.28,-0.187 -0.36,-0.568 -0.18,-0.852c0.19,-0.283 0.57,-0.363 0.85,-0.176l23,15.127c0.28,0.187 0.359,0.568 0.18,0.852c-0.12,0.179 -0.321,0.277 -0.52,0.277Z" style="fill:#304a9f;fill-rule:nonzero;"/><path d="M189.87,310.784c-0.2,0 -0.4,-0.098 -0.52,-0.277c-0.18,-0.284 -0.1,-0.665 0.18,-0.852l22.99,-15.127c0.289,-0.187 0.67,-0.107 0.86,0.176c0.179,0.284 0.1,0.665 -0.18,0.852l-23,15.127c-0.1,0.069 -0.22,0.101 -0.33,0.101Z" style="fill:#586bb2;fill-rule:nonzero;"/><path d="M243.33,288.991l-83.933,0l0,-10.957c0,-2.179 1.759,-3.938 3.917,-3.938l76.076,0c2.18,0 3.94,1.759 3.94,3.938l0,10.957Zm-3.94,-15.419l-76.076,0c-2.453,0 -4.441,1.988 -4.441,4.441l0,14.141c0,1.585 1.285,2.87 2.87,2.87l79.237,0c1.59,0 2.88,-1.285 2.88,-2.87l0,-14.12c0,-2.465 -2,-4.462 -4.47,-4.462Z" style="fill:#586bb2;fill-rule:nonzero;"/><path d="M223.01,395.36c0,2.77 -2.24,5.01 -5.01,5.01c-2.77,0 -5.01,-2.24 -5.01,-5.01c0,-2.77 2.24,-5.01 5.01,-5.01c2.77,0 5.01,2.24 5.01,5.01Z" style="fill:#bcb7db;fill-rule:nonzero;"/><path d="M216.539,386.14l-0.159,8.5c0.01,0.71 0.99,1.64 1.71,1.64c0.73,0 1.26,-0.31 1.49,-0.86l2.91,-9.28l-5.951,0Z" style="fill:#586bb2;fill-rule:nonzero;"/><path d="M220,395.36c0,1.1 -0.9,2 -2,2c-1.1,0 -2,-0.9 -2,-2c0,-1.11 0.9,-2 2,-2c1.1,0 2,0.89 2,2Z" style="fill:#184866;fill-rule:nonzero;"/><path d="M179.72,395.36c0,2.77 2.24,5.01 5.01,5.01c2.76,0 5.01,-2.24 5.01,-5.01c0,-2.77 -2.25,-5.01 -5.01,-5.01c-2.77,0 -5.01,2.24 -5.01,5.01Z" style="fill:#bcb7db;fill-rule:nonzero;"/><path d="M186.19,386.14l0.15,8.5c0,0.71 -0.98,1.64 -1.71,1.64c-0.73,0 -1.25,-0.31 -1.48,-0.86l-2.92,-9.28l5.96,0Z" style="fill:#586bb2;fill-rule:nonzero;"/><path d="M182.73,395.36c0,1.1 0.89,2 2,2c1.1,0 2,-0.9 2,-2c0,-1.11 -0.9,-2 -2,-2c-1.11,0 -2,0.89 -2,2Z" style="fill:#184866;fill-rule:nonzero;"/><path d="M225.61,371.27l0,15.54c0,1.03 -0.84,1.86 -1.86,1.86l-44.77,0c-1.02,0 -1.86,-0.83 -1.86,-1.86l0,-15.54c0,-1.02 0.84,-1.86 1.86,-1.86l44.77,0c1.02,0 1.86,0.84 1.86,1.86Z" style="fill:#586bb2;fill-rule:nonzero;"/><path d="M177.12,384.27l0,2.54c0,1.03 0.84,1.86 1.86,1.86l44.77,0c1.02,0 1.86,-0.83 1.86,-1.86l0,-2.54l-48.49,0Z" style="fill:#bcb7db;fill-rule:nonzero;"/><path d="M217.76,159.012c0,0 1.73,14.562 -3.701,15.295l-1.079,7.327l-6.47,1.007c0,0 1.72,-6.044 0.669,-7.876c-1.049,-1.832 -2.559,-4.763 -2.559,-4.763l0.61,-7.166l1.65,-3.183l3.7,-3.119l7.18,2.478Z" style="fill:#f7b75d;fill-rule:nonzero;"/><path d="M225.68,285.496c-2.9,-0.567 -4.55,-1.87 -5.55,-3.698c-0.99,-1.829 -5.52,0 -5.52,0c0,0 -0.941,2.692 -0.451,5.757c0.121,0.775 0.75,1.424 1.541,1.436l12.12,0c0.59,-1.662 0.75,-2.926 -2.14,-3.495Z" style="fill:#184866;fill-rule:nonzero;"/><path d="M210.51,285.496c-2.9,-0.567 -4.55,-1.87 -5.55,-3.698c-0.99,-1.829 -5.52,0 -5.52,0c0,0 -0.94,2.692 -0.45,5.757c0.12,0.775 0.75,1.424 1.54,1.436l12.12,0c0.59,-1.662 0.75,-2.926 -2.14,-3.495Z" style="fill:#184866;fill-rule:nonzero;"/><path d="M198.84,221.339l8.54,0c0,0 5.48,-3.324 5.15,3.259c-0.32,6.582 -7.371,57.302 -7.371,57.302c-1.98,1.401 -5.74,0.637 -5.74,0.637c-2.479,-11.895 -0.579,-61.198 -0.579,-61.198Z" style="fill:#3b59a8;fill-rule:nonzero;"/><path d="M209.58,218.399l8.54,0c0,0 5.08,-3.324 5.55,3.258c0.47,6.583 -3.81,61.087 -3.81,61.087c-1.801,1.4 -5.16,0 -5.16,0c-3.92,-11.895 -5.12,-64.345 -5.12,-64.345Z" style="fill:#3b59a8;fill-rule:nonzero;"/><path d="M235.03,191.732c-2.11,-0.747 -9.93,-8.984 -11.85,-11.983c-0.7,-1.096 -1.84,-1.824 -3.131,-2.008c-3.839,-0.549 -6.569,3.754 -4.349,6.941c3.87,5.55 12.44,12.337 16.77,13.22c4.78,1.007 20.23,-0.015 20.23,-0.015c0.41,-1.325 0.55,-3.133 -1.2,-4.713c0,0 -13.11,-0.266 -16.47,-1.442Z" style="fill:#77cfe4;fill-rule:nonzero;"/><path d="M223.7,182.641c0.06,-3.449 -1.71,-5.21 -4.661,-6.255c-1.669,-0.59 -3.659,-0.881 -5.069,-1.449c-0.48,3.679 -2.28,4.189 -2.28,4.189c-3.631,-2.617 -4.511,-4.361 -4.511,-4.361c-0.319,0.239 -0.989,0.738 -1.799,1.355c-3.51,2.66 -5.61,6.769 -5.721,11.164c-0.319,13.388 -0.889,34.596 -0.889,34.596c5.389,3.103 25.11,0.928 24.88,-0.145c-0.15,-1.392 -0.17,-25.618 0.05,-39.094Z" style="fill:#90d7ee;fill-rule:nonzero;"/><path d="M218.77,156.4c-1.851,0.255 -5.04,0.246 -9.03,-1.549c-6.451,-2.902 -11.64,11.697 -3.64,19.13c0,0 2,0.383 1.689,-0.962c-0.299,-1.346 -2.589,-7.482 1.941,-4.342l1.069,-0.407c0,0 -3.979,-6.23 -0.189,-5.666c3.13,0.467 6.85,-2.21 8.939,-4.765c0.51,-0.62 0.01,-1.548 -0.779,-1.439Z" style="fill:#184866;fill-rule:nonzero;"/><path d="M378.92,166.913l-123.13,0c-2.8,0 -5.08,2.28 -5.08,5.082l0,81.173c0,2.801 2.28,5.081 5.08,5.081l123.13,0c2.8,0 5.08,-2.28 5.08,-5.081l0,-81.173c0,-2.802 -2.28,-5.082 -5.08,-5.082Z" style="fill:#586bb2;fill-rule:nonzero;"/><path d="M252.51,253.163c0,1.81 1.47,3.277 3.28,3.277l123.13,0c1.81,0 3.28,-1.467 3.28,-3.277l0,-74.406l-129.69,0l0,74.406Z" style="fill:#fff;fill-rule:nonzero;"/><path d="M273.24,173.471c0,1.079 -0.87,1.953 -1.95,1.953c-1.08,0 -1.96,-0.874 -1.96,-1.953c0,-1.079 0.88,-1.954 1.96,-1.954c1.08,0 1.95,0.875 1.95,1.954Z" style="fill:#fff;fill-rule:nonzero;"/><path d="M266.4,173.471c0,1.079 -0.88,1.953 -1.96,1.953c-1.08,0 -1.95,-0.874 -1.95,-1.953c0,-1.079 0.87,-1.954 1.95,-1.954c1.08,0 1.96,0.875 1.96,1.954Z" style="fill:#fff;fill-rule:nonzero;"/><path d="M259.55,173.471c0,1.079 -0.87,1.953 -1.95,1.953c-1.08,0 -1.96,-0.874 -1.96,-1.953c0,-1.079 0.88,-1.954 1.96,-1.954c1.08,0 1.95,0.875 1.95,1.954Z" style="fill:#fff;fill-rule:nonzero;"/><path d="M359.04,189.744l-25.65,0c-2.14,0 -3.87,1.734 -3.87,3.873l0,25.655c0,2.139 1.73,3.873 3.87,3.873l25.65,0c2.14,0 3.88,-1.734 3.88,-3.873l0,-25.655c0,-2.139 -1.74,-3.873 -3.88,-3.873Z" style="fill:#5ec5d6;fill-rule:nonzero;"/><path d="M346.22,210.982c-2.51,0.001 -4.54,-2.031 -4.54,-4.534c0,-2.508 2.03,-4.54 4.54,-4.541c2.5,-0.001 4.53,2.03 4.53,4.536c0.01,2.504 -2.02,4.538 -4.53,4.539Zm8.87,-2.821l2.22,-0.001l0,-3.441l-2.22,0.001c-0.24,-1.217 -0.72,-2.344 -1.39,-3.335l1.57,-1.57l-2.43,-2.433l-1.57,1.57c-0.99,-0.667 -2.12,-1.142 -3.34,-1.378l0,-2.221l-3.44,0.001l0,2.221c-1.21,0.237 -2.34,0.713 -3.33,1.381l-1.57,-1.568l-2.44,2.435l1.57,1.569c-0.66,0.99 -1.14,2.118 -1.37,3.336l-2.22,0l0,3.441l2.22,0c0.24,1.216 0.71,2.346 1.38,3.334l-1.57,1.57l2.44,2.433l1.56,-1.57c1,0.668 2.12,1.145 3.34,1.379l0,2.221l3.44,-0.002l0,-2.221c1.22,-0.234 2.35,-0.712 3.34,-1.381l1.57,1.569l2.43,-2.436l-1.57,-1.568c0.67,-0.988 1.14,-2.119 1.38,-3.336Z" style="fill:#fff;fill-rule:nonzero;"/><rect x="259.63" y="222.115" width="32.41" height="4.199" style="fill:#bcb7db;fill-rule:nonzero;"/><rect x="259.63" y="230.834" width="44.52" height="4.199" style="fill:#bcb7db;fill-rule:nonzero;"/><rect x="259.63" y="239.552" width="48.58" height="4.199" style="fill:#bcb7db;fill-rule:nonzero;"/><rect x="316.71" y="239.552" width="31.77" height="4.199" style="fill:#bcb7db;fill-rule:nonzero;"/><path d="M463.88,82.302l6.85,-7.302l6.84,7.302l-13.69,0Zm-17.88,0.001l6.85,-7.303l6.85,7.302l-13.7,0.001Zm-17.87,0l6.83,-7.303l6.86,7.303l-13.69,0Zm-17.88,0l0.09,-0.089l6.76,-7.213l6.85,7.302l-13.7,0Zm-15.69,0.001l6.86,-7.303l6.83,7.302l-13.69,0.001Zm-17.88,0l6.85,-7.303l6.85,7.303l-13.7,0Zm-17.87,0l6.83,-7.302l6.86,7.302l-13.69,0Zm-17.88,0.001l6.85,-7.303l6.85,7.302l-13.7,0.001Zm-17.89,0l6.85,-7.303l6.86,7.303l-13.71,0Zm-6.56,0l0,-17.279l4.07,0l8.09,8.651l-8.09,8.628l-4.07,0Zm20.27,-17.279l-6.86,7.303l-6.85,-7.303l13.71,0Zm17.88,0l-6.85,7.302l-6.85,-7.302l13.7,0Zm17.87,-0.001l-6.86,7.303l-6.83,-7.303l13.69,0Zm17.88,0l-6.85,7.302l-6.85,-7.302l13.7,0Zm17.87,-0.001l-6.83,7.303l-6.86,-7.302l13.69,-0.001Zm15.7,0l-6.85,7.303l-6.76,-7.213l-0.09,-0.09l13.7,0Zm17.87,0l-6.86,7.302l-6.83,-7.302l13.69,0Zm17.88,-0.001l-6.85,7.303l-6.85,-7.302l13.7,-0.001Zm17.87,0l-6.84,7.303l-6.85,-7.303l13.69,0Zm-33.66,0.45l7.68,8.201l-7.68,8.179l-7.69,-8.178l7.69,-8.202Zm-17.87,0l7.69,8.202l-7.69,8.179l-7.68,-8.179l7.68,-8.202Zm-16.78,1.192l6.58,7.01l-6.58,7.011l-6.59,-7.011l6.59,-7.01Zm-16.79,-1.191l7.69,8.201l-7.69,8.179l-7.68,-8.178l7.68,-8.202Zm-17.88,0.001l7.68,8.201l-7.68,8.179l-7.69,-8.179l7.69,-8.201Zm-35.75,16.38l-7.69,-8.178l7.69,-8.202l7.68,8.201l-7.68,8.179Zm17.88,-16.38l7.69,8.201l-7.69,8.179l-7.68,-8.179l7.68,-8.201Zm105.07,16.378l-7.68,-8.179l7.68,-8.201l7.69,8.201l-7.69,8.179Zm22.75,0.449l-2.77,0l2.77,-2.961l0,-2.685l-4.88,5.197l-7.69,-8.179l7.69,-8.202l4.88,5.21l0,-2.698l-2.77,-2.961l2.77,0l0,-1.685l-170.22,0.003l0,20.65l170.22,-0.004l0,-1.685Z" style="fill:#586bb2;fill-rule:nonzero;"/><path d="M515.93,226.801l0.16,0l0,-0.155l-0.16,0.155Zm-29.62,-0.155l0,0.155l0.15,0l-0.15,-0.155Z" style="fill:#586bb2;fill-rule:nonzero;"/><path d="M486.31,342.76l12.58,11.81l-12.58,11.77l0,-23.58Zm0,-30.827l12.58,11.807l-12.58,11.82l0,-23.627Zm0,-30.787l12.58,11.772l-12.58,11.813l0,-23.585Zm0,-30.826l0.15,0.155l12.43,11.657l-12.58,11.811l0,-23.623Zm0,-27.03l12.58,11.811l-12.58,11.773l0,-23.584Zm0,-30.826l12.58,11.812l-12.58,11.811l0,-23.623Zm0,-30.786l12.58,11.772l-12.58,11.812l0,-23.584Zm0,-30.826l12.58,11.812l-12.58,11.81l0,-23.622Zm0,-30.825l12.58,11.811l-12.58,11.811l0,-23.622Zm0,-11.309l29.78,0l0,7.01l-14.91,13.942l-14.87,-13.942l0,-7.01Zm29.78,34.931l-12.59,-11.811l12.59,-11.811l0,23.622Zm0,30.825l-12.59,-11.81l12.59,-11.812l0,23.622Zm0,30.788l-12.59,-11.812l12.59,-11.772l0,23.584Zm0,30.825l-12.59,-11.811l12.59,-11.812l0,23.623Zm0,30.787l-12.59,-11.773l12.59,-11.811l0,23.584Zm0,27.069l-12.59,-11.811l12.43,-11.657l0.16,-0.155l0,23.623Zm0,30.788l-12.59,-11.813l12.59,-11.772l0,23.585Zm0,30.829l-12.59,-11.82l12.59,-11.807l0,23.627Zm0,30.78l-12.59,-11.77l12.59,-11.81l0,23.58Zm-0.78,-58.008l-14.13,13.244l-14.1,-13.244l14.1,-13.245l14.13,13.245Zm0,-30.787l-14.13,13.244l-14.1,-13.244l14.1,-13.245l14.13,13.245Zm-2.05,-28.929l-12.08,11.348l-12.08,-11.348l12.08,-11.346l12.08,11.346Zm2.05,-28.928l-14.13,13.245l-14.1,-13.245l14.1,-13.243l14.13,13.243Zm0,-30.825l-14.13,13.245l-14.1,-13.245l14.1,-13.244l14.13,13.244Zm-28.23,-61.612l14.1,-13.244l14.13,13.244l-14.13,13.244l-14.1,-13.244Zm28.23,30.825l-14.13,13.244l-14.1,-13.244l14.1,-13.243l14.13,13.243Zm-28.23,181.084l14.1,-13.25l14.13,13.25l-14.13,13.24l-14.1,-13.24Zm-0.77,39.2l0,-4.78l5.1,4.78l4.63,0l-8.96,-8.42l14.1,-13.24l14.13,13.24l-8.98,8.42l4.65,0l5.11,-4.78l0,4.78l2.9,0l0,-293.359l-35.59,0l0,293.359l2.91,0Z" style="fill:#586bb2;fill-rule:nonzero;"/><path d="M502.16,50.517c13.34,0.4 23.63,12.039 23.63,25.385l0,25.467c0,2.139 -1.74,3.873 -3.87,3.873l-41.01,0c-2.14,0 -3.87,-1.734 -3.87,-3.873l0,-26.489c0,-13.71 11.32,-24.777 25.12,-24.363Z" style="fill:#3b59a8;fill-rule:nonzero;"/><rect x="480.69" y="75.655" width="41.45" height="25.032" style="fill:#d0d4eb;fill-rule:nonzero;"/><rect x="459.57" y="359.62" width="65.98" height="40.75" style="fill:#77cfe4;fill-rule:nonzero;"/><path d="M512.36,342.17l-65.98,0l13.19,17.45l65.98,0l-13.19,-17.45Z" style="fill:#90d7ee;fill-rule:nonzero;"/><rect x="525.55" y="359.62" width="30.33" height="40.75" style="fill:#5ec5d6;fill-rule:nonzero;"/><path d="M537.7,344.68l30.32,0l-12.14,14.94l-30.33,0l12.15,-14.94Z" style="fill:#77cfe4;fill-rule:nonzero;"/><path d="M239.94,203.137c-0.92,-0.17 -2.04,-0.106 -2.69,-0.072c0.12,-0.056 1.68,-0.904 1.39,-1.345c-0.17,-0.464 -4.79,1.035 -4.79,1.035l-0.21,2.768c0.49,0.778 4.35,1.922 6.22,1.427c0.19,-0.051 0.35,-0.183 0.45,-0.357c0.55,-0.978 0.65,-1.99 0.16,-3.045c-0.1,-0.213 -0.3,-0.368 -0.53,-0.411Z" style="fill:#f7b75d;fill-rule:nonzero;"/><path d="M233.78,201.825c0,0 -12.77,-2.967 -15.82,-4.814c-1.911,-1.166 -7.86,-10.842 -9.11,-14.171c-0.46,-1.217 -1.431,-2.166 -2.65,-2.612c-3.651,-1.332 -7.2,2.315 -5.69,5.892c2.64,6.229 9.62,14.641 13.68,16.402c4.46,1.97 19.79,4.165 19.79,4.165c0.68,-1.212 1.19,-2.952 -0.2,-4.862Z" style="fill:#77cfe4;fill-rule:nonzero;"/><path d="M391.74,276.442c1,1.318 0.61,1.947 0.61,1.947c-1.54,0.915 -3.51,-2.396 -3.96,-3.72c-0.45,-1.322 -0.97,-0.665 -0.97,-0.665c-3.21,3.286 0.87,6.919 3.06,8.495c0.76,0.548 1.35,1.281 1.73,2.131c0.89,-1.087 1.98,-1.866 3.18,-2.404c-0.34,-0.524 -0.61,-1.089 -0.71,-1.723c-0.23,-1.467 -0.71,-3.715 -1.69,-4.949c-1.52,-1.889 -2.26,-0.43 -1.25,0.888Z" style="fill:#f7b75d;fill-rule:nonzero;"/><path d="M402.11,297.93c-3.78,-3.026 -11.59,-15.3 -11.59,-15.3c0.73,-1.069 1.97,-2.242 4.27,-1.816c0,0 8.54,9.775 11.54,11.625c1.89,1.168 11.46,0.822 16.31,0.563c1.71,-0.092 3.28,0.902 3.95,2.478c1.04,2.449 -0.49,5.274 -3.13,5.631c-7.09,0.958 -17.26,0.139 -21.35,-3.181Z" style="fill:#e2709a;fill-rule:nonzero;"/><path d="M425.82,274.283c0,0 -1.62,13.635 3.46,14.321l1.02,6.86l6.05,0.943c0,0 -1.03,-5.116 -0.05,-6.831c0.98,-1.715 1.82,-5.003 1.82,-5.003l-0.56,-6.71l-1.55,-2.98l-3.47,-2.92l-6.72,2.32Z" style="fill:#f7b75d;fill-rule:nonzero;"/><path d="M444,393.62c0,0 -4.37,-1.71 -5.17,0c-0.8,1.71 -4.07,2.75 -6.74,3.28c-2.67,0.54 -3.31,0.52 -3.16,2.47c0.12,1.63 10.93,0.83 14.55,0.51c0.73,-0.06 1.28,-0.62 1.34,-1.34c0.22,-2.87 -0.82,-4.92 -0.82,-4.92Z" style="fill:#184866;fill-rule:nonzero;"/><path d="M443.66,329.89l-7.99,0c0,0 -5,-3.11 -4.96,3.05c0.05,6.16 8.44,61.57 8.44,61.57c1.8,1.31 4.84,0 4.84,0c2.78,-11.14 -0.33,-64.62 -0.33,-64.62Z" style="fill:#3b59a8;fill-rule:nonzero;"/><path d="M423.59,393.62c0,0 -4.1,-1.71 -5.17,0c-1.07,1.71 -4.51,2.75 -7.26,3.28c-2.75,0.54 -3.39,0.52 -3.55,2.47c-0.14,1.63 10.79,0.82 14.46,0.51c0.75,-0.06 1.38,-0.62 1.56,-1.34c0.68,-2.87 -0.04,-4.92 -0.04,-4.92Z" style="fill:#184866;fill-rule:nonzero;"/><path d="M433.38,329.89l-8,0c0,0 -4.5,-3.11 -5.44,3.05c-0.93,6.16 -1.34,61.57 -1.34,61.57c1.59,1.31 4.84,0 4.84,0c4.55,-11.14 9.94,-64.62 9.94,-64.62Z" style="fill:#3b59a8;fill-rule:nonzero;"/><path d="M420.29,298.398c-0.05,-3.229 1.34,-5.445 4.13,-7.077c1.43,-0.835 3.63,-1.595 4.95,-2.128c0.45,3.446 2.14,3.922 2.14,3.922c3.57,-0.374 5.17,-4.294 5.17,-4.294c0.82,0.613 3.01,2.995 6.06,4.566c1.67,0.862 2.69,2.589 2.67,4.467c-0.13,12.121 -1.33,40.056 -1.33,40.056c-5.05,2.91 -24.71,1.05 -24.49,0.05c0.14,-1.31 0.91,-26.945 0.7,-39.562Z" style="fill:#f388a9;fill-rule:nonzero;"/><path d="M439,273.942c-0.14,-0.805 -0.4,-1.581 -0.89,-2.184c-0.4,-0.517 -0.92,-0.861 -1.47,-1.178c-0.4,-0.201 -0.8,-0.432 -1.26,-0.46c-0.43,-0.029 -0.92,0.172 -1.18,0.574c-0.83,-1.034 -1.9,-1.81 -3.05,-2.241c-1,-0.403 -2.15,-0.517 -3.1,0c-0.72,0.373 -1.29,1.034 -1.96,1.523c-0.59,0.458 -2.68,1.611 -3.31,1.987c-1.31,0.787 -2.19,3.8 4.09,5.198c1.86,0.414 3.94,0.316 5.55,-0.862c0.37,-0.259 0.72,-0.603 0.77,-1.091c0.81,1.753 1.21,3.735 1.15,5.748c0,0.114 0,0.257 0.06,0.373l0.23,0.144c0.4,0.143 0.81,0.287 1.18,0.431c0.11,-0.747 0.23,-1.495 0.34,-2.214c0.03,-0.258 0.09,-0.545 0.26,-0.747c0.29,-0.288 0.78,-0.086 1.01,0.288c0.2,0.373 0.2,0.861 0.2,1.323c0,0.975 -0.03,2.068 -0.6,2.787c-0.41,0.517 0.6,2.989 0.6,3.477c1.84,-0.805 0.98,-3.765 1.41,-5.977c0.2,-1.065 0.23,-2.127 0.23,-3.191c0,-1.236 0,-2.501 -0.26,-3.708Z" style="fill:#184866;fill-rule:nonzero;"/><path d="M318.32,162.934l0,-82.435l-1.93,0l0,83.32c0,0.533 0.43,0.968 0.96,0.968c2.07,0 3.75,1.683 3.75,3.748c0,2.065 -1.68,3.748 -3.75,3.748c-2.06,0 -3.74,-1.683 -3.74,-3.748c0,-0.533 -0.44,-0.968 -0.97,-0.968c-0.54,0 -0.97,0.435 -0.97,0.968c0,3.135 2.55,5.684 5.68,5.684c3.14,0 5.69,-2.549 5.69,-5.684c0,-2.806 -2.04,-5.139 -4.72,-5.601Z" style="fill:#bcb7db;fill-rule:nonzero;"/><path d="M317.04,157.679c-5.62,-0.168 -9.95,-5.071 -9.95,-10.692l0,-10.727c0,-0.901 0.73,-1.631 1.63,-1.631l17.27,0c0.9,0 1.63,0.73 1.63,1.631l0,11.157c0,5.775 -4.77,10.437 -10.58,10.262Z" style="fill:#fff;fill-rule:nonzero;"/><path d="M302.2,73.664c0,8.367 6.79,15.149 15.15,15.149c8.37,0 15.15,-6.782 15.15,-15.149c0,-8.366 -6.78,-15.149 -15.15,-15.149c-8.36,0 -15.15,6.783 -15.15,15.149Z" style="fill:#586bb2;fill-rule:nonzero;"/><path d="M308.75,73.664c0,4.752 3.85,8.605 8.6,8.605c4.76,0 8.61,-3.853 8.61,-8.605c0,-4.752 -3.85,-8.605 -8.61,-8.605c-4.75,0 -8.6,3.853 -8.6,8.605Z" style="fill:#304a9f;fill-rule:nonzero;"/><path d="M407.78,314.08c1.65,-0.178 1.98,0.484 1.98,0.484c-0.01,1.79 -3.87,1.761 -5.23,1.46c-1.37,-0.301 -1.08,0.486 -1.08,0.486c1.15,4.448 6.37,2.838 8.86,1.788c0.86,-0.364 1.79,-0.488 2.71,-0.373c-0.46,-1.325 -0.56,-2.667 -0.4,-3.969c-0.63,0.021 -1.25,-0.04 -1.84,-0.285c-1.37,-0.568 -3.55,-1.318 -5.11,-1.127c-2.4,0.324 -1.54,1.714 0.11,1.536Z" style="fill:#f7b75d;fill-rule:nonzero;"/><path d="M431.53,316.357c-4.55,1.666 -19.09,1.97 -19.09,1.97c-0.54,-1.175 -0.9,-2.845 0.66,-4.587c0,0 12.79,-2.233 15.93,-3.84c1.97,-1.007 6.64,-9.37 8.94,-13.65c0.81,-1.51 2.47,-2.337 4.17,-2.092c2.63,0.38 4.25,3.155 3.19,5.594c-2.86,6.557 -8.84,14.833 -13.8,16.605Z" style="fill:#e2709a;fill-rule:nonzero;"/><path d="M490.23,373.77l-22.56,0c-1.21,0 -2.2,0.99 -2.2,2.2l0,22.56c0,1.22 0.99,2.21 2.2,2.21l22.56,0c1.22,0 2.21,-0.99 2.21,-2.21l0,-22.56c0,-1.21 -0.99,-2.2 -2.21,-2.2Z" style="fill:#286078;fill-rule:nonzero;"/><path d="M484.93,379.75c0,1.56 -1.25,2.81 -2.81,2.81c-0.29,0 -0.58,-0.04 -0.85,-0.14c0,0 0.05,11.46 0,11.66c-0.3,1.99 -2.03,3.51 -4.12,3.51c-2.3,0 -4.17,-1.87 -4.17,-4.17c0,-2.32 1.87,-4.18 4.17,-4.18c0.78,0 1.52,0.22 2.13,0.59l0,-10.08c0,-1.56 1.28,-2.83 2.84,-2.83c1.56,0 2.81,1.27 2.81,2.83Z" style="fill:#fff;fill-rule:nonzero;"/><rect x="94.339" y="360.54" width="51.946" height="39.83" style="fill:#f388a9;fill-rule:nonzero;"/><path d="M135.897,346.81l-51.947,0l10.389,13.73l51.946,0l-10.388,-13.73Z" style="fill:#f59bb5;fill-rule:nonzero;"/><rect x="146.285" y="360.54" width="23.873" height="39.83" style="fill:#e2709a;fill-rule:nonzero;"/><path d="M155.847,348.78l23.873,0l-9.562,11.76l-23.873,0l9.562,-11.76Z" style="fill:#f59bb5;fill-rule:nonzero;"/></g></g></svg>